<svg width="56" height="56" viewBox="0 0 56 56" fill="none" xmlns="http://www.w3.org/2000/svg">
<path fill-rule="evenodd" clip-rule="evenodd" d="M21 28H15.708C15.1943 28.8897 14.4015 29.585 13.4524 29.9781C12.5033 30.3712 11.451 30.4402 10.4587 30.1743C9.46643 29.9084 8.58961 29.3226 7.96423 28.5076C7.33885 27.6925 6.99988 26.694 6.99988 25.6667C6.99988 24.6394 7.33885 23.6408 7.96423 22.8258C8.58961 22.0108 9.46643 21.4249 10.4587 21.159C11.451 20.8931 12.5033 20.9621 13.4524 21.3552C14.4015 21.7484 15.1943 22.4437 15.708 23.3333H21V11.6667C21 10.429 21.4917 9.242 22.3668 8.36683C23.242 7.49167 24.429 7 25.6667 7H44.3333C45.571 7 46.758 7.49167 47.6332 8.36683C48.5083 9.242 49 10.429 49 11.6667V44.3333C49 45.571 48.5083 46.758 47.6332 47.6332C46.758 48.5083 45.571 49 44.3333 49H25.6667C24.429 49 23.242 48.5083 22.3668 47.6332C21.4917 46.758 21 45.571 21 44.3333V28ZM25.6667 28V44.3333H44.3333V11.6667H25.6667V23.3333H30.9587C31.4723 22.4437 32.2652 21.7484 33.2143 21.3552C34.1634 20.9621 35.2156 20.8931 36.2079 21.159C37.2002 21.4249 38.0771 22.0108 38.7024 22.8258C39.3278 23.6408 39.6668 24.6394 39.6668 25.6667C39.6668 26.694 39.3278 27.6925 38.7024 28.5076C38.0771 29.3226 37.2002 29.9084 36.2079 30.1743C35.2156 30.4402 34.1634 30.3712 33.2143 29.9781C32.2652 29.585 31.4723 28.8897 30.9587 28H25.6667Z" fill="#CF6390"/>
</svg>
